<svg width="14" height="12" viewBox="0 0 14 12" fill="none" xmlns="http://www.w3.org/2000/svg">
<path fill-rule="evenodd" clip-rule="evenodd" d="M1.73778 5.28879H12.2622C12.8906 5.28879 13.4 5.81941 13.4 6.47397V9.28879H0.600006V6.47397C0.600006 5.81941 1.10941 5.28879 1.73778 5.28879Z" stroke="white" stroke-width="0.8" stroke-linecap="round" stroke-linejoin="round"/>
<path d="M0.600006 9.28864V11.0664" stroke="white" stroke-width="0.8" stroke-linecap="round" stroke-linejoin="round"/>
<path d="M13.3998 9.28864V11.0664" stroke="white" stroke-width="0.8" stroke-linecap="round" stroke-linejoin="round"/>
<path d="M12.1205 5.28888V1.28888C12.1205 0.797963 11.7385 0.399994 11.2672 0.399994H2.73389C2.2626 0.399994 1.88055 0.797963 1.88055 1.28888V5.28888" stroke="white" stroke-width="0.8" stroke-linecap="round" stroke-linejoin="round"/>
<path fill-rule="evenodd" clip-rule="evenodd" d="M5.0084 3.06665H8.99062C9.30481 3.06665 9.55951 3.33196 9.55951 3.65924V5.28887H4.43951V3.65924C4.43951 3.33196 4.69421 3.06665 5.0084 3.06665Z" stroke="white" stroke-width="0.8" stroke-linecap="round" stroke-linejoin="round"/>
</svg>
