<svg width="20" height="20" viewBox="0 0 20 20" fill="none" xmlns="http://www.w3.org/2000/svg">
<path fill-rule="evenodd" clip-rule="evenodd" d="M9.28834 14.5833H3.75001C3.28977 14.5833 2.91667 14.2102 2.91667 13.75C2.91667 13.2898 3.28977 12.9167 3.75001 12.9167H9.28834C9.65697 11.6807 10.7936 10.8336 12.0833 10.8336C13.3731 10.8336 14.5097 11.6807 14.8783 12.9167H16.25C16.7102 12.9167 17.0833 13.2898 17.0833 13.75C17.0833 14.2102 16.7102 14.5833 16.25 14.5833H14.8783C14.5097 15.8193 13.3731 16.6664 12.0833 16.6664C10.7936 16.6664 9.65697 15.8193 9.28834 14.5833ZM13.3333 13.75C13.3333 13.0596 12.7737 12.5 12.0833 12.5C11.393 12.5 10.8333 13.0596 10.8333 13.75C10.8333 14.4404 11.393 15 12.0833 15C12.7737 15 13.3333 14.4404 13.3333 13.75Z" fill="url(#paint0_linear)"/>
<path fill-rule="evenodd" clip-rule="evenodd" d="M4.70501 7.08333H3.75001C3.28977 7.08333 2.91667 6.71024 2.91667 6.25C2.91667 5.78976 3.28977 5.41667 3.75001 5.41667H4.70501C5.07363 4.18071 6.21025 3.33362 7.50001 3.33362C8.78976 3.33362 9.92638 4.18071 10.295 5.41667H16.25C16.7102 5.41667 17.0833 5.78976 17.0833 6.25C17.0833 6.71024 16.7102 7.08333 16.25 7.08333H10.295C9.92638 8.31928 8.78976 9.16638 7.50001 9.16638C6.21025 9.16638 5.07363 8.31928 4.70501 7.08333ZM8.75001 6.25C8.75001 5.55964 8.19036 5 7.50001 5C6.80965 5 6.25001 5.55964 6.25001 6.25C6.25001 6.94036 6.80965 7.5 7.50001 7.5C8.19036 7.5 8.75001 6.94036 8.75001 6.25Z" fill="url(#paint1_linear)"/>
<defs>
<linearGradient id="paint0_linear" x1="2.91667" y1="10.8336" x2="4.59918" y2="19.1823" gradientUnits="userSpaceOnUse">
<stop stop-color="#F1F1F1"/>
<stop offset="1" stop-color="#DDDDDD"/>
</linearGradient>
<linearGradient id="paint1_linear" x1="2.91667" y1="3.33362" x2="4.59918" y2="11.6823" gradientUnits="userSpaceOnUse">
<stop stop-color="#F1F1F1"/>
<stop offset="1" stop-color="#DDDDDD"/>
</linearGradient>
</defs>
</svg>
